<?xml version="1.0" encoding="utf-8"?>
<svg xmlns="http://www.w3.org/2000/svg" viewBox="0 0 426.899 80.042">
  <defs>
    <linearGradient gradientUnits="userSpaceOnUse" x1="213.888" y1="-3.516" x2="213.888" y2="192.129" id="gradient-3" gradientTransform="matrix(0.052352, 0.99863, -0.717325, 0.0376, 271.305211, -126.774775)">
      <stop offset="0" style="stop-color: rgb(95.294% 51.373% 26.275%)"/>
      <stop offset="1" style="stop-color: rgb(177, 68, 0);"/>
    </linearGradient>
    <linearGradient gradientUnits="userSpaceOnUse" x1="202.286" y1="10.237" x2="202.286" y2="24.299" id="gradient-4" gradientTransform="matrix(0.471828, 0.881688, -2.401435, 1.285111, 146.842462, -183.881628)">
      <stop offset="0" style="stop-color: rgb(95.294% 51.373% 26.275%)"/>
      <stop offset="1" style="stop-color: rgb(63.243% 24.121% 0%)"/>
    </linearGradient>
  </defs>
  <g id="SvgjsG18629" featurekey="nameFeature-0" transform="matrix(1.727083, 0, 0, 1.727083, 79.507731, 69.12887)" fill="#222222">
    <path d="M 31.88 -4.785 C 32.44 -4.705 32.28 -3.425 31.8 -3.425 L 21.24 -3.425 C 20.72 -3.425 20.68 -4.705 21.12 -4.785 C 22.6 -5.065 24.2 -5.585 22.72 -9.025 L 22.28 -10.025 C 21.88 -10.985 21.2 -11.065 20 -11.065 L 11.84 -11.065 C 10.64 -11.065 9.96 -10.985 9.56 -10.025 L 9.16 -9.025 C 7.76 -5.585 9.28 -5.065 11.2 -4.785 C 11.72 -4.705 11.6 -3.425 11.08 -3.425 L 2.44 -3.425 C 1.96 -3.425 1.84 -4.705 2.32 -4.785 C 3.96 -5.065 4.92 -5.625 6.4 -9.025 L 13.16 -24.545 C 14.72 -28.065 15.2 -29.705 15.2 -31.225 C 15.2 -31.465 18 -32.105 18.12 -31.825 L 27.88 -9.065 C 29.32 -5.665 30.28 -5.025 31.88 -4.785 Z M 19.72 -13.305 C 20.28 -13.305 20.88 -13.385 20.64 -13.945 L 15.96 -25.145 L 11.24 -13.945 C 11 -13.385 11.6 -13.305 12.16 -13.305 L 19.72 -13.305 Z M 38.555 -2.785 C 35.315 -2.785 31.915 -4.105 32.355 -5.305 L 32.995 -6.985 C 33.915 -9.425 35.555 -5.225 40.035 -5.225 C 43.915 -5.225 44.435 -7.785 41.355 -9.345 L 36.115 -11.985 C 29.995 -15.065 32.035 -22.745 39.875 -22.745 C 42.835 -22.745 45.875 -21.545 45.395 -20.385 L 44.715 -18.705 C 43.755 -16.305 42.235 -20.265 38.275 -20.265 C 35.235 -20.265 34.675 -17.705 37.475 -16.305 L 42.915 -13.545 C 49.315 -10.305 47.155 -2.785 38.555 -2.785 Z M 57.83 -2.785 C 53.47 -2.785 47.11 -5.385 47.11 -12.305 C 47.11 -16.945 50.03 -22.745 57.83 -22.745 C 60.23 -22.745 63.39 -21.985 63.07 -20.785 L 62.71 -19.385 C 61.79 -15.745 59.87 -20.105 55.75 -20.105 C 52.83 -20.105 51.43 -17.745 51.43 -14.545 C 51.43 -8.905 56.15 -5.865 59.03 -5.865 C 59.43 -5.865 60.71 -6.105 62.59 -6.545 C 62.95 -6.625 63.27 -5.545 63.03 -5.425 C 61.47 -4.585 58.59 -2.785 57.83 -2.785 Z M 79.345 -6.505 C 79.705 -6.585 80.025 -5.505 79.785 -5.385 C 78.225 -4.625 74.985 -2.785 74.225 -2.785 C 69.305 -2.785 62.985 -5.105 62.985 -12.185 C 62.985 -16.945 65.905 -22.745 73.065 -22.745 C 79.105 -22.745 79.865 -18.425 79.865 -16.745 C 79.865 -15.705 79.545 -14.145 79.145 -13.225 L 67.265 -12.905 C 68.025 -7.945 72.065 -5.865 75.225 -5.865 C 75.585 -5.865 77.305 -6.065 79.345 -6.505 Z M 71.665 -20.185 C 68.505 -20.185 67.265 -18.025 67.145 -14.985 L 75.825 -15.265 C 76.225 -17.425 75.185 -20.185 71.665 -20.185 Z M 80.58 -3.425 C 80.26 -3.425 79.98 -4.585 80.3 -4.625 C 81.5 -4.785 83.02 -5.345 83.02 -7.665 L 83.02 -25.265 C 83.02 -29.665 82.42 -30.505 79.94 -30.785 C 79.62 -30.825 79.74 -31.865 80.02 -31.905 L 87.46 -33.505 C 87.82 -33.585 88.14 -33.305 88.02 -32.785 C 87.74 -31.505 87.3 -28.945 87.3 -23.665 L 87.3 -7.665 C 87.3 -5.345 88.82 -4.785 90.06 -4.625 C 90.34 -4.585 90.1 -3.425 89.78 -3.425 L 80.58 -3.425 Z M 90.095 -3.425 C 89.775 -3.425 89.495 -4.585 89.815 -4.625 C 91.015 -4.785 92.535 -5.345 92.535 -7.665 L 92.535 -25.265 C 92.535 -29.665 91.935 -30.505 89.455 -30.785 C 89.135 -30.825 89.255 -31.865 89.535 -31.905 L 96.975 -33.505 C 97.335 -33.585 97.655 -33.305 97.535 -32.785 C 97.255 -31.505 96.815 -28.945 96.815 -23.665 L 96.815 -7.665 C 96.815 -5.345 98.335 -4.785 99.575 -4.625 C 99.855 -4.585 99.615 -3.425 99.295 -3.425 L 90.095 -3.425 Z M 99.61 -3.425 C 99.29 -3.425 99.01 -4.585 99.33 -4.625 C 100.57 -4.785 102.13 -5.345 102.13 -7.665 L 102.13 -16.505 C 102.13 -18.945 101.49 -19.545 99.41 -19.825 C 99.09 -19.865 99.21 -20.905 99.49 -20.985 L 106.57 -22.665 C 106.97 -22.745 107.17 -22.465 107.05 -21.945 C 106.77 -20.665 106.41 -18.305 106.41 -15.705 L 106.41 -7.665 C 106.41 -5.345 107.97 -4.785 109.21 -4.625 C 109.49 -4.585 109.25 -3.425 108.93 -3.425 L 99.61 -3.425 Z M 123.365 -21.385 C 124.438 -20.658 125.19 -19.463 125.685 -18.265 C 125.968 -17.58 126.005 -16.825 126.005 -16.065 C 126.005 -12.785 123.845 -9.225 118.085 -9.225 C 115.685 -9.225 113.885 -7.945 113.885 -6.865 C 113.885 -6.225 114.485 -5.705 115.845 -5.705 L 123.805 -5.705 C 126.525 -5.705 128.445 -4.905 128.445 -2.345 C 128.445 1.935 123.045 5.735 116.765 5.735 C 111.285 5.735 110.125 2.735 110.125 0.855 C 110.125 0.215 111.965 -1.225 113.365 -2.465 C 111.805 -3.305 110.005 -5.305 110.005 -6.065 C 110.005 -6.825 110.325 -7.185 111.165 -7.745 L 114.405 -9.865 C 111.605 -10.985 110.325 -13.385 110.325 -15.905 C 110.325 -19.185 112.485 -22.745 118.245 -22.745 C 120.445 -22.745 121.903 -22.376 123.365 -21.385 Z M 118.925 -11.225 C 121.045 -11.225 122.005 -12.825 122.005 -15.025 C 122.005 -17.985 120.165 -20.745 117.485 -20.745 C 115.405 -20.745 114.365 -19.145 114.365 -16.865 C 114.365 -13.945 116.165 -11.225 118.925 -11.225 Z M 121.925 -2.065 L 114.565 -2.065 L 114.445 -2.065 C 114.245 -1.145 112.965 -0.185 112.965 0.495 C 112.965 2.055 115.525 3.615 118.805 3.615 C 125.165 3.615 125.845 -2.065 121.925 -2.065 Z M 144.28 -6.505 C 144.64 -6.585 144.96 -5.505 144.72 -5.385 C 143.16 -4.625 139.92 -2.785 139.16 -2.785 C 134.24 -2.785 127.92 -5.105 127.92 -12.185 C 127.92 -16.945 130.84 -22.745 138 -22.745 C 144.04 -22.745 144.8 -18.425 144.8 -16.745 C 144.8 -15.705 144.48 -14.145 144.08 -13.225 L 132.2 -12.905 C 132.96 -7.945 137 -5.865 140.16 -5.865 C 140.52 -5.865 142.24 -6.065 144.28 -6.505 Z M 136.6 -20.185 C 133.44 -20.185 132.2 -18.025 132.08 -14.985 L 140.76 -15.265 C 141.16 -17.425 140.12 -20.185 136.6 -20.185 Z M 145.515 -3.425 C 145.195 -3.425 144.915 -4.585 145.235 -4.625 C 146.435 -4.785 147.995 -5.345 147.995 -7.665 L 147.995 -17.265 C 147.995 -19.185 146.955 -19.625 145.275 -19.825 C 144.955 -19.865 145.115 -20.905 145.435 -20.985 L 151.755 -22.745 C 152.235 -22.865 152.435 -22.545 152.435 -22.145 C 152.435 -21.025 152.755 -20.625 153.395 -20.865 C 155.355 -21.585 157.235 -22.745 159.635 -22.745 C 163.555 -22.745 164.915 -19.745 164.915 -17.145 L 164.915 -7.665 C 164.915 -5.345 166.475 -4.785 167.675 -4.625 C 167.995 -4.585 167.715 -3.425 167.435 -3.425 L 158.515 -3.425 C 158.235 -3.425 158.035 -4.585 158.275 -4.625 C 159.795 -4.865 160.635 -5.545 160.635 -7.665 L 160.635 -15.345 C 160.635 -18.705 158.995 -19.465 156.435 -19.465 C 154.715 -19.465 152.275 -18.985 152.275 -17.945 L 152.275 -7.665 C 152.275 -5.545 153.355 -4.825 154.835 -4.625 C 155.115 -4.585 154.875 -3.425 154.555 -3.425 L 145.515 -3.425 Z M 178.63 -2.785 C 174.27 -2.785 167.91 -5.385 167.91 -12.305 C 167.91 -16.945 170.83 -22.745 178.63 -22.745 C 181.03 -22.745 184.19 -21.985 183.87 -20.785 L 183.51 -19.385 C 182.59 -15.745 180.67 -20.105 176.55 -20.105 C 173.63 -20.105 172.23 -17.745 172.23 -14.545 C 172.23 -8.905 176.95 -5.865 179.83 -5.865 C 180.23 -5.865 181.51 -6.105 183.39 -6.545 C 183.75 -6.625 184.07 -5.545 183.83 -5.425 C 182.27 -4.585 179.39 -2.785 178.63 -2.785 Z M 200.145 -6.505 C 200.505 -6.585 200.825 -5.505 200.585 -5.385 C 199.025 -4.625 195.785 -2.785 195.025 -2.785 C 190.105 -2.785 183.785 -5.105 183.785 -12.185 C 183.785 -16.945 186.705 -22.745 193.865 -22.745 C 199.905 -22.745 200.665 -18.425 200.665 -16.745 C 200.665 -15.705 200.345 -14.145 199.945 -13.225 L 188.065 -12.905 C 188.825 -7.945 192.865 -5.865 196.025 -5.865 C 196.385 -5.865 198.105 -6.065 200.145 -6.505 Z M 192.465 -20.185 C 189.305 -20.185 188.065 -18.025 187.945 -14.985 L 196.625 -15.265 C 197.025 -17.425 195.985 -20.185 192.465 -20.185 Z" style="fill: rgb(29, 29, 31); transform-box: fill-box; transform-origin: 50% 50%;"/>
  </g>
  <g transform="matrix(1, 0, 0, 1, 33.208947, -14.286008)">
    <g fill="#FFA64D" transform="matrix(0.002141, -0.007461, 0.007461, 0.002141, -379.934246, 280.275002)" style="transform-origin: 388.43px -180.107px;">
      <g id="Capa_1" transform="matrix(1, 0, 0, 1, 0, -1732.101614)">
        <g transform="matrix(52.093639, 0, 0, 52.093639, -4707.50014, -4987.450832)">
          <path style="stroke-linecap: round; stroke-width: 9.97524px; stroke: url(&quot;#gradient-3&quot;); fill: none;" d="M 229.861 84.301 L 228.485 92.854 L 298.865 89.044 L 298.865 85.429 L 229.861 84.301 Z M 218.31 105.31 L 246.811 131.853 L 265.717 150.757 L 268.269 148.209 L 223.413 101.745 L 218.31 105.31 Z M 206.781 192.129 L 210.403 192.129 L 210.962 106.934 L 206.571 107.336 L 206.781 192.129 Z M 188.522 84.689 L 134.958 72.614 L 128.912 77.502 L 187.485 88.922 L 188.522 84.689 Z M 210.403 -3.516 L 206.781 -3.516 L 206.181 68.982 L 210.097 68.098 L 210.403 -3.516 Z M 194.038 76.815 L 154.115 44.043 L 153.439 43.538 L 151.281 46.444 L 189.781 75.053 L 194.038 76.815 Z M 268.38 27.606 L 265.76 25.104 L 221.029 73.11 L 223.37 75.008 L 268.38 27.606 Z M 164.267 174.888 L 168.901 178.101 L 197.796 105.799 L 195.274 105.425 L 164.267 174.888 Z M 228.175 99.344 L 283.744 114.901 L 284.717 111.419 L 229.145 95.862 L 228.175 99.344 Z M 160.932 104.139 L 162.181 107.535 L 191.77 96.565 L 190.613 93.261 L 160.932 104.139 Z M 226.69 80.884 L 276.458 63.627 L 275.27 60.209 L 225.51 77.466 L 226.69 80.884 Z M 196.065 70.577 L 204.909 67.236 L 177.159 10.055 L 176.805 9.286 L 173.52 10.807 L 200.849 69.065 L 196.065 70.577 Z"/>
        </g>
      </g>
    </g>
    <rect style="stroke-width: 3px; fill: none; stroke: url(&quot;#gradient-4&quot;); transform-box: fill-box; transform-origin: 50% 50%;" transform="matrix(0.731295, -0.682061, 0.682061, 0.731295, -196.108709, 35.797421)" x="195.255" y="10.237" width="14.062" height="14.062" rx="7.031" ry="7.031"/>
  </g>
  <rect x="37.229" y="83.338" width="9" height="9" style="stroke-width: 2; fill: rgb(29, 29, 31);" transform="matrix(0.707107, 0.707107, -0.707107, 0.707107, 291.020791, -69.983957)" rx="2.007" ry="2.007"/>
</svg>